<?xml version="1.0" encoding="UTF-8"?><svg id="Dark_Mode" xmlns="http://www.w3.org/2000/svg" viewBox="0 0 1440 1440"><defs><style>.cls-1{fill:#dfff00;}.cls-1,.cls-2,.cls-3{stroke-width:0px;}.cls-3{fill:none;}</style></defs><polygon id="BOTTOM" class="cls-1" points="720 1179.64 336.97 949.82 720 720 1103.03 949.82 720 1179.64"/><g id="BACK_FACES"><polygon id="BACK_SLANT_TOP" class="cls-1" points="528.48 605.09 911.52 834.91 1103.03 490.18 720 260.36 528.48 605.09"/><polygon id="BACK_LEFT" class="cls-2" points="336.97 949.82 720 720 528.48 605.09 720 260.36 336.97 490.18 336.97 949.82"/></g><g id="FRONT_FACES"><g id="FRONT_LEFT"><polygon class="cls-3" points="336.97 949.82 720 1179.64 720 720 336.97 490.18 336.97 949.82"/></g><polygon id="FRONT_RIGHT" class="cls-2" points="1103.03 949.82 911.52 834.91 1103.03 490.18 720 720 720 1179.64 1103.03 949.82"/></g><polygon id="TOP" class="cls-3" points="720 720 336.97 490.18 720 260.36 1103.03 490.18 720 720"/><g id="OUTLINE"><path class="cls-1" d="m720,260.36l383.03,229.82-191.52,344.73,191.52,114.91-383.03,229.82-383.03-229.82v-459.64l383.03-229.82m0-20c-3.56,0-7.12.95-10.29,2.85l-383.03,229.82c-6.02,3.61-9.71,10.12-9.71,17.15v459.64c0,7.03,3.69,13.54,9.71,17.15l383.03,229.82c3.17,1.9,6.73,2.85,10.29,2.85s7.12-.95,10.29-2.85l383.03-229.82c6.02-3.61,9.71-10.12,9.71-17.15s-3.69-13.54-9.71-17.15l-174.93-104.96,182.12-327.82c5.24-9.43,2.06-21.31-7.19-26.86l-383.03-229.82c-3.17-1.9-6.73-2.85-10.29-2.85h0Z"/></g></svg>