<?xml version="1.0" encoding="UTF-8"?><svg id="Main" xmlns="http://www.w3.org/2000/svg" viewBox="0 0 1440 1440"><defs><style>.cls-1{fill:#dfff00;}.cls-1,.cls-2{stroke-width:0px;}.cls-2{fill:#fff;}</style></defs><g id="Logo"><g id="Bottom_Right_Corner"><polygon id="Inner_Angle_BR" class="cls-2" points="729 1017 729 945 891 783 891 855 729 1017"/><polygon id="Outer_Angle_BR" class="cls-2" points="1089 783 1089 873 873 1089 729 1089 729 1017 855 1017 1089 783"/></g><g id="E"><polygon id="E_Large_Section" class="cls-2" points="351 783 351 873 567 1089 711 1089 711 1017 585 1017 351 783"/><polygon id="E_Middle_Prong" class="cls-2" points="648 882 468 882 531 945 711 945 648 882"/><polygon id="E_Top_Prong" class="cls-2" points="549 783 369 783 432 846 612 846 549 783"/></g><g id="M"><polygon id="M_Body" class="cls-2" points="1089 657 1089 567 873 351 729 351 729 423 855 423 1089 657"/><polygon id="M_Lower_Leg" class="cls-2" points="729 423 729 495 891 657 891 585 729 423"/><polygon id="M_Outer_Section" class="cls-2" points="891 351 1089 549 1089 468 972 351 891 351"/></g><g id="A"><polygon id="A_Large_Section" class="cls-2" points="351 657 351 567 567 351 711 351 711 423 585 423 351 657"/><polygon id="A_Lower_Section" class="cls-2" points="549 657 549 585 585 549 495 549 558 486 648 486 711 423 711 495 549 657"/></g></g><polygon id="Centerpiece" class="cls-1" points="720 872.74 567.26 720 720 567.26 872.74 720 720 720 720 872.74"/><path id="Star" class="cls-1" d="m1161,351c-39.77,0-72,32.23-72,72,0-39.77-32.23-72-72-72,39.77,0,72-32.23,72-72,0,39.77,32.23,72,72,72Z"/></svg>